<svg width="1536" height="1024" viewBox="0 0 1536 1024" fill="none" xmlns="http://www.w3.org/2000/svg">
<rect width="1536" height="1024" rx="40" fill="#F6F1EA"/>
<rect width="1536" height="1024" fill="url(#bg)" opacity="0.78"/>
<circle cx="1256" cy="164" r="124" fill="#E7C9AD" fill-opacity="0.52"/>
<circle cx="222" cy="842" r="136" fill="#E7C9AD" fill-opacity="0.2"/>
<path d="M144 781C144 781 228 716 338 718C448 720 501 780 579 778" stroke="#201D1D" stroke-width="3" stroke-linecap="round" stroke-dasharray="14 18"/>
<path d="M1022 229C1022 229 1101 171 1217 181C1333 191 1404 272 1456 347" stroke="#201D1D" stroke-width="3" stroke-linecap="round" stroke-dasharray="14 18"/>
<rect x="108" y="128" width="1320" height="770" rx="44" fill="#FFFDFC" stroke="#201D1D" stroke-width="4"/>
<rect x="171" y="191" width="232" height="44" rx="22" fill="#201D1D"/>
<rect x="223" y="207" width="126" height="12" rx="6" fill="#F6F1EA"/>
<rect x="171" y="282" width="520" height="32" rx="16" fill="#201D1D"/>
<rect x="171" y="338" width="430" height="26" rx="13" fill="#C9782E"/>
<rect x="171" y="389" width="506" height="18" rx="9" fill="#201D1D" fill-opacity="0.16"/>
<rect x="170" y="492" width="322" height="202" rx="32" fill="#FAF6F0" stroke="#201D1D" stroke-width="4"/>
<rect x="222" y="552" width="150" height="24" rx="12" fill="#201D1D"/>
<rect x="222" y="596" width="118" height="18" rx="9" fill="#201D1D" fill-opacity="0.16"/>
<rect x="562" y="462" width="407" height="272" rx="36" fill="#F2E6D8" stroke="#201D1D" stroke-width="4"/>
<rect x="615" y="516" width="132" height="90" rx="20" fill="#FFFDFC" stroke="#201D1D" stroke-width="4"/>
<rect x="777" y="527" width="128" height="16" rx="8" fill="#201D1D"/>
<rect x="777" y="559" width="94" height="16" rx="8" fill="#201D1D" fill-opacity="0.22"/>
<rect x="777" y="591" width="118" height="16" rx="8" fill="#201D1D" fill-opacity="0.22"/>
<rect x="1082" y="492" width="247" height="202" rx="32" fill="#FAF6F0" stroke="#201D1D" stroke-width="4"/>
<circle cx="1206" cy="594" r="50" fill="#FFFDFC" stroke="#201D1D" stroke-width="4"/>
<path d="M1206 566V596L1231 619" stroke="#201D1D" stroke-width="5" stroke-linecap="round" stroke-linejoin="round"/>
<circle cx="1206" cy="596" r="6" fill="#201D1D"/>
<path d="M493 592H562" stroke="#201D1D" stroke-width="5" stroke-linecap="round"/>
<path d="M969 592H1038" stroke="#201D1D" stroke-width="5" stroke-linecap="round"/>
<path d="M530 570L560 592L530 614" stroke="#201D1D" stroke-width="5" stroke-linecap="round" stroke-linejoin="round"/>
<path d="M1007 570L1037 592L1007 614" stroke="#201D1D" stroke-width="5" stroke-linecap="round" stroke-linejoin="round"/>
<rect x="230" y="760" width="1098" height="76" rx="24" fill="#201D1D"/>
<rect x="282" y="789" width="286" height="18" rx="9" fill="#F6F1EA"/>
<rect x="611" y="789" width="188" height="18" rx="9" fill="#F6F1EA" fill-opacity="0.26"/>
<rect x="842" y="789" width="155" height="18" rx="9" fill="#F6F1EA" fill-opacity="0.26"/>
<path d="M1322 782L1336 814L1371 817L1344 840L1352 874L1322 854L1292 874L1300 840L1273 817L1308 814L1322 782Z" fill="#E7C9AD" fill-opacity="0.58" stroke="#201D1D" stroke-width="3"/>
<defs>
<radialGradient id="bg" cx="0" cy="0" r="1" gradientUnits="userSpaceOnUse" gradientTransform="translate(768 512) rotate(90) scale(720 1080)">
<stop stop-color="#FFFFFF"/>
<stop offset="1" stop-color="#E9D8C7"/>
</radialGradient>
</defs>
</svg>
